<svg xmlns="http://www.w3.org/2000/svg" width="830" height="92" viewBox="0 0 830 92" role="img" aria-label="지표 요약">
<text x="0" y="12" font-family="ui-monospace,SFMono-Regular,'SF Mono',Menlo,Consolas,monospace" font-size="9" letter-spacing="1.8" fill="#818B98">HACK THE BOX</text>
<text x="0" y="36" font-family="-apple-system,BlinkMacSystemFont,'Segoe UI',Helvetica,Arial,sans-serif" font-size="17" font-weight="400" fill="#1F2328">Pro Hacker</text>
<rect x="0" y="63" width="250" height="3" rx="1.5" fill="#E4E8EC"/><rect x="0" y="63" width="157.5" height="3" rx="1.5" fill="#1A7F37"/>
<text x="0" y="82" font-family="ui-monospace,SFMono-Regular,'SF Mono',Menlo,Consolas,monospace" font-size="10" fill="#818B98">Machines 42 · Challenges 18</text>
<line x1="270" y1="2" x2="270" y2="86" stroke="#D1D9E0" stroke-width="1"/>
<text x="290" y="12" font-family="ui-monospace,SFMono-Regular,'SF Mono',Menlo,Consolas,monospace" font-size="9" letter-spacing="1.8" fill="#818B98">COMMIT RHYTHM</text>
<text x="290" y="36" font-family="-apple-system,BlinkMacSystemFont,'Segoe UI',Helvetica,Arial,sans-serif" font-size="17" font-weight="400" fill="#1F2328">22:00 – 02:00</text>
<rect x="290.00" y="63.87" width="8.82" height="2.13" rx="1" fill="#9AA5B1"/><rect x="300.42" y="64.00" width="8.82" height="2.00" rx="1" fill="#9AA5B1"/><rect x="310.83" y="64.00" width="8.82" height="2.00" rx="1" fill="#9AA5B1"/><rect x="321.25" y="64.00" width="8.82" height="2.00" rx="1" fill="#9AA5B1"/><rect x="331.67" y="64.00" width="8.82" height="2.00" rx="1" fill="#9AA5B1"/><rect x="342.08" y="64.00" width="8.82" height="2.00" rx="1" fill="#9AA5B1"/><rect x="352.50" y="64.00" width="8.82" height="2.00" rx="1" fill="#9AA5B1"/><rect x="362.92" y="64.00" width="8.82" height="2.00" rx="1" fill="#9AA5B1"/><rect x="373.33" y="64.00" width="8.82" height="2.00" rx="1" fill="#9AA5B1"/><rect x="383.75" y="63.16" width="8.82" height="2.84" rx="1" fill="#9AA5B1"/><rect x="394.17" y="61.74" width="8.82" height="4.26" rx="1" fill="#9AA5B1"/><rect x="404.58" y="61.03" width="8.82" height="4.97" rx="1" fill="#9AA5B1"/><rect x="415.00" y="60.32" width="8.82" height="5.68" rx="1" fill="#9AA5B1"/><rect x="425.42" y="61.03" width="8.82" height="4.97" rx="1" fill="#9AA5B1"/><rect x="435.83" y="61.74" width="8.82" height="4.26" rx="1" fill="#9AA5B1"/><rect x="446.25" y="61.03" width="8.82" height="4.97" rx="1" fill="#9AA5B1"/><rect x="456.67" y="59.61" width="8.82" height="6.39" rx="1" fill="#9AA5B1"/><rect x="467.08" y="58.19" width="8.82" height="7.81" rx="1" fill="#9AA5B1"/><rect x="477.50" y="56.77" width="8.82" height="9.23" rx="1" fill="#9AA5B1"/><rect x="487.92" y="54.65" width="8.82" height="11.35" rx="1" fill="#9AA5B1"/><rect x="498.33" y="51.81" width="8.82" height="14.19" rx="1" fill="#9AA5B1"/><rect x="508.75" y="47.55" width="8.82" height="18.45" rx="1" fill="#1A7F37"/><rect x="519.17" y="44.00" width="8.82" height="22.00" rx="1" fill="#1A7F37"/><rect x="529.58" y="46.13" width="8.82" height="19.87" rx="1" fill="#1A7F37"/>
<text x="290" y="82" font-family="ui-monospace,SFMono-Regular,'SF Mono',Menlo,Consolas,monospace" font-size="10" fill="#818B98">Last 90 days</text>
<line x1="560" y1="2" x2="560" y2="86" stroke="#D1D9E0" stroke-width="1"/>
<text x="580" y="12" font-family="ui-monospace,SFMono-Regular,'SF Mono',Menlo,Consolas,monospace" font-size="9" letter-spacing="1.8" fill="#818B98">LANGUAGES</text>
<text x="580" y="36" font-family="-apple-system,BlinkMacSystemFont,'Segoe UI',Helvetica,Arial,sans-serif" font-size="17" font-weight="400" fill="#1F2328">JavaScript<tspan font-size="13" fill="#59636E"> 82%</tspan></text>
<rect x="580.00" y="63" width="204.00" height="3" rx="1.5" fill="#1A7F37"/><rect x="785.00" y="63" width="21.50" height="3" rx="1.5" fill="#9AA5B1"/><rect x="807.50" y="63" width="9.00" height="3" rx="1.5" fill="#B6BEC8"/><rect x="817.50" y="63" width="11.50" height="3" rx="1.5" fill="#D1D9E0"/>
<text x="580" y="82" font-family="ui-monospace,SFMono-Regular,'SF Mono',Menlo,Consolas,monospace" font-size="10" fill="#818B98">Java 9 · CSS 4 · etc 5</text>
</svg>
